<svg id="Layer_1" data-name="Layer 1" xmlns="http://www.w3.org/2000/svg" viewBox="0 0 1000 1000"><defs><style>.cls-1{fill:#fff;}.cls-2{fill:#5c0f8b;}</style></defs><rect class="cls-1" x="291.72" y="270.74" width="397.91" height="460.22"/><path class="cls-2" d="M766.26,766.27H233.74V233.73H766.26Zm-284.7-62.22c.61,3.73,8.71,5.54,10.54,0l18.59-147.54h-45.2ZM526.5,523.48H449.65v22.37H526.5Zm-22.18-10.91c97.43,3.52,104.35-85.31,104.72-118.5.06-1.94-.91-2.13-1.36-.75C604.76,400.22,592.11,425,557,440c-31.39,13.48-50.26,44-53.53,71.47a.88.88,0,0,0,.87,1.07m-10.68-6.44c15.42-73.95,75.59-75.74,81-89.76,8.42-21.92-6.94-60.72-10.89-65.32-.35-.49-.9-.2-1.12.23-8.15,17.9-21.38,35-31,42.82-13.65,11-65.91,49.72-39.18,112.09a.65.65,0,0,0,1.28-.06m-10.64,3c-32.63-69.74,32.64-114.74,43.26-124.5,1.51-1.36,1.13-2.64,1.16-4.23,0-21.95-12.57-57.45-16.7-62.53-.58-.77-1.05-.44-1.3.36-5.58,21.63-35.3,53.89-41.27,60.92C417.78,439,429.32,475.55,481.93,510c.64.43,1.45-.06,1.07-.84m-14.61,2.39c-54.58-32.56-49.12-79.08-26.48-113.28a5,5,0,0,0,.48-3.27c-.94-8.14-9.83-28.71-13.53-34.3-.95-1.41-1.77-1.3-1.82-.3-.34,9.28-10.89,32.6-27.1,59.44-17.24,28.56-17.26,90.59,68.21,93,.82,0,1.07-.78.24-1.26"/></svg>